<svg class="ldp-dust" width="200px"  height="200px"  xmlns="http://www.w3.org/2000/svg" xmlns:xlink="http://www.w3.org/1999/xlink" preserveAspectRatio="xMidYMid" style="background: rgba(0, 0, 0, 0) none repeat scroll 0% 0%;"><defs>
  <pattern id="ldp-896c6bde9e3528" x="0" y="0" width="200" height="200" patternUnits="userSpaceOnUse">
    <g>
<animateTransform attributeName="transform" type="translate" values="0 0;0 200" keyTimes="0;1" repeatCount="indefinite" dur="2.35s" begin="-0.6933840879793337s"></animateTransform>
<g transform="translate(102.06877696921883 -177.31242714142877)"><g transform="scale(0.5593927341971067)">
<path d="M3.1,3.7C3.9,2.9,5,2.5,5.8,1.8c0.3-0.3,0.6-0.6,1-0.7c0.6-0.2,1.2,0.1,1.7,0C8,3.3,8.2,5.6,8.2,7.8c0,0,0,0.1,0,0.1 c0,0.1-0.1,0.1-0.2,0.1c-1.3,0.5-2.7,0.3-4,0.8C3.9,8.9,3.8,9,3.6,9C3.4,9,3.3,8.9,3.2,8.7C2.9,8.4,1.7,7.1,1.4,7.3 C1.6,7,1.7,6.6,1.8,6.2L3.1,3.7z" fill="#fff" transform="translate(-5 -5)"></path>
</g></g></g><g>
<animateTransform attributeName="transform" type="translate" values="0 0;0 200" keyTimes="0;1" repeatCount="indefinite" dur="2.35s" begin="-0.6933840879793337s"></animateTransform>
<g transform="translate(102.06877696921883 22.687572858571244)"><g transform="scale(0.5593927341971067)">
<path d="M3.1,3.7C3.9,2.9,5,2.5,5.8,1.8c0.3-0.3,0.6-0.6,1-0.7c0.6-0.2,1.2,0.1,1.7,0C8,3.3,8.2,5.6,8.2,7.8c0,0,0,0.1,0,0.1 c0,0.1-0.1,0.1-0.2,0.1c-1.3,0.5-2.7,0.3-4,0.8C3.9,8.9,3.8,9,3.6,9C3.4,9,3.3,8.9,3.2,8.7C2.9,8.4,1.7,7.1,1.4,7.3 C1.6,7,1.7,6.6,1.8,6.2L3.1,3.7z" fill="#fff" transform="translate(-5 -5)"></path>
</g></g></g><g>
<animateTransform attributeName="transform" type="translate" values="0 0;0 200" keyTimes="0;1" repeatCount="indefinite" dur="2.35s" begin="-0.6933840879793337s"></animateTransform>
<g transform="translate(102.06877696921883 222.68757285857123)"><g transform="scale(0.5593927341971067)">
<path d="M3.1,3.7C3.9,2.9,5,2.5,5.8,1.8c0.3-0.3,0.6-0.6,1-0.7c0.6-0.2,1.2,0.1,1.7,0C8,3.3,8.2,5.6,8.2,7.8c0,0,0,0.1,0,0.1 c0,0.1-0.1,0.1-0.2,0.1c-1.3,0.5-2.7,0.3-4,0.8C3.9,8.9,3.8,9,3.6,9C3.4,9,3.3,8.9,3.2,8.7C2.9,8.4,1.7,7.1,1.4,7.3 C1.6,7,1.7,6.6,1.8,6.2L3.1,3.7z" fill="#fff" transform="translate(-5 -5)"></path>
</g></g></g><g>
<animateTransform attributeName="transform" type="translate" values="0 0;0 200" keyTimes="0;1" repeatCount="indefinite" dur="2.35s" begin="-3.3488191297090038s"></animateTransform>
<g transform="translate(114.82251109879142 -67.65147209272371)"><g transform="scale(0.2379920382490065)">
<path d="M1.8,8.9c0.6-1.3,1.2-2.6,1.8-4c0.4-0.8,0.8-1.7,1.3-2.4S6.2,1.2,7.1,1c0.4,0.8,1,1.5,1.1,2.4C8.3,4.1,8,4.9,7.6,5.6 S6.6,6.8,6,7.3C5.6,7.8,5.1,8.2,4.5,8.4C3.7,8.8,2.7,8.6,1.9,9L1.8,8.9z" fill="#eee" transform="translate(-5 -5)"></path>
</g></g></g><g>
<animateTransform attributeName="transform" type="translate" values="0 0;0 200" keyTimes="0;1" repeatCount="indefinite" dur="2.35s" begin="-3.3488191297090038s"></animateTransform>
<g transform="translate(114.82251109879142 132.3485279072763)"><g transform="scale(0.2379920382490065)">
<path d="M1.8,8.9c0.6-1.3,1.2-2.6,1.8-4c0.4-0.8,0.8-1.7,1.3-2.4S6.2,1.2,7.1,1c0.4,0.8,1,1.5,1.1,2.4C8.3,4.1,8,4.9,7.6,5.6 S6.6,6.8,6,7.3C5.6,7.8,5.1,8.2,4.5,8.4C3.7,8.8,2.7,8.6,1.9,9L1.8,8.9z" fill="#eee" transform="translate(-5 -5)"></path>
</g></g></g><g>
<animateTransform attributeName="transform" type="translate" values="0 0;0 200" keyTimes="0;1" repeatCount="indefinite" dur="2.35s" begin="-3.3488191297090038s"></animateTransform>
<g transform="translate(114.82251109879142 332.3485279072763)"><g transform="scale(0.2379920382490065)">
<path d="M1.8,8.9c0.6-1.3,1.2-2.6,1.8-4c0.4-0.8,0.8-1.7,1.3-2.4S6.2,1.2,7.1,1c0.4,0.8,1,1.5,1.1,2.4C8.3,4.1,8,4.9,7.6,5.6 S6.6,6.8,6,7.3C5.6,7.8,5.1,8.2,4.5,8.4C3.7,8.8,2.7,8.6,1.9,9L1.8,8.9z" fill="#eee" transform="translate(-5 -5)"></path>
</g></g></g><g>
<animateTransform attributeName="transform" type="translate" values="0 0;0 200" keyTimes="0;1" repeatCount="indefinite" dur="1.175s" begin="-4.021769778526446s"></animateTransform>
<g transform="translate(76.6859082598702 -92.7314584886639)"><g transform="scale(0.0632070719016903)">
<path d="M5.3,1.8C4.2,1.2,2.6,1.7,1.8,2.6s-1,2.4-0.7,3.7c0.1,0.4,0.3,0.8,0.5,1.1C2,7.8,2.4,8,2.9,8.2c2.1,0.7,4.6-0.1,5.9-2 C8.9,6,9,5.8,9,5.6C9,5.4,8.9,5.2,8.8,5c-0.3-0.6-0.5-1.2-1-1.7C7.2,2.6,6.3,2.1,5.3,1.8z" fill="#fff" transform="translate(-5 -5)"></path>
</g></g></g><g>
<animateTransform attributeName="transform" type="translate" values="0 0;0 200" keyTimes="0;1" repeatCount="indefinite" dur="1.175s" begin="-4.021769778526446s"></animateTransform>
<g transform="translate(76.6859082598702 107.2685415113361)"><g transform="scale(0.0632070719016903)">
<path d="M5.3,1.8C4.2,1.2,2.6,1.7,1.8,2.6s-1,2.4-0.7,3.7c0.1,0.4,0.3,0.8,0.5,1.1C2,7.8,2.4,8,2.9,8.2c2.1,0.7,4.6-0.1,5.9-2 C8.9,6,9,5.8,9,5.6C9,5.4,8.9,5.2,8.8,5c-0.3-0.6-0.5-1.2-1-1.7C7.2,2.6,6.3,2.1,5.3,1.8z" fill="#fff" transform="translate(-5 -5)"></path>
</g></g></g><g>
<animateTransform attributeName="transform" type="translate" values="0 0;0 200" keyTimes="0;1" repeatCount="indefinite" dur="1.175s" begin="-4.021769778526446s"></animateTransform>
<g transform="translate(76.6859082598702 307.2685415113361)"><g transform="scale(0.0632070719016903)">
<path d="M5.3,1.8C4.2,1.2,2.6,1.7,1.8,2.6s-1,2.4-0.7,3.7c0.1,0.4,0.3,0.8,0.5,1.1C2,7.8,2.4,8,2.9,8.2c2.1,0.7,4.6-0.1,5.9-2 C8.9,6,9,5.8,9,5.6C9,5.4,8.9,5.2,8.8,5c-0.3-0.6-0.5-1.2-1-1.7C7.2,2.6,6.3,2.1,5.3,1.8z" fill="#fff" transform="translate(-5 -5)"></path>
</g></g></g><g>
<animateTransform attributeName="transform" type="translate" values="0 0;0 200" keyTimes="0;1" repeatCount="indefinite" dur="4.7s" begin="-1.7735895238917987s"></animateTransform>
<g transform="translate(172.96553123277695 -154.21773712753136)"><g transform="scale(0.11833062166045392)">
<path d="M3.1,3.7C3.9,2.9,5,2.5,5.8,1.8c0.3-0.3,0.6-0.6,1-0.7c0.6-0.2,1.2,0.1,1.7,0C8,3.3,8.2,5.6,8.2,7.8c0,0,0,0.1,0,0.1 c0,0.1-0.1,0.1-0.2,0.1c-1.3,0.5-2.7,0.3-4,0.8C3.9,8.9,3.8,9,3.6,9C3.4,9,3.3,8.9,3.2,8.7C2.9,8.4,1.7,7.1,1.4,7.3 C1.6,7,1.7,6.6,1.8,6.2L3.1,3.7z" fill="#f9f9f9" transform="translate(-5 -5)"></path>
</g></g></g><g>
<animateTransform attributeName="transform" type="translate" values="0 0;0 200" keyTimes="0;1" repeatCount="indefinite" dur="4.7s" begin="-1.7735895238917987s"></animateTransform>
<g transform="translate(172.96553123277695 45.782262872468635)"><g transform="scale(0.11833062166045392)">
<path d="M3.1,3.7C3.9,2.9,5,2.5,5.8,1.8c0.3-0.3,0.6-0.6,1-0.7c0.6-0.2,1.2,0.1,1.7,0C8,3.3,8.2,5.6,8.2,7.8c0,0,0,0.1,0,0.1 c0,0.1-0.1,0.1-0.2,0.1c-1.3,0.5-2.7,0.3-4,0.8C3.9,8.9,3.8,9,3.6,9C3.4,9,3.3,8.9,3.2,8.7C2.9,8.4,1.7,7.1,1.4,7.3 C1.6,7,1.7,6.6,1.8,6.2L3.1,3.7z" fill="#f9f9f9" transform="translate(-5 -5)"></path>
</g></g></g><g>
<animateTransform attributeName="transform" type="translate" values="0 0;0 200" keyTimes="0;1" repeatCount="indefinite" dur="4.7s" begin="-1.7735895238917987s"></animateTransform>
<g transform="translate(172.96553123277695 245.78226287246864)"><g transform="scale(0.11833062166045392)">
<path d="M3.1,3.7C3.9,2.9,5,2.5,5.8,1.8c0.3-0.3,0.6-0.6,1-0.7c0.6-0.2,1.2,0.1,1.7,0C8,3.3,8.2,5.6,8.2,7.8c0,0,0,0.1,0,0.1 c0,0.1-0.1,0.1-0.2,0.1c-1.3,0.5-2.7,0.3-4,0.8C3.9,8.9,3.8,9,3.6,9C3.4,9,3.3,8.9,3.2,8.7C2.9,8.4,1.7,7.1,1.4,7.3 C1.6,7,1.7,6.6,1.8,6.2L3.1,3.7z" fill="#f9f9f9" transform="translate(-5 -5)"></path>
</g></g></g><g>
<animateTransform attributeName="transform" type="translate" values="0 0;0 200" keyTimes="0;1" repeatCount="indefinite" dur="1.5666666666666667s" begin="-2.228792296987411s"></animateTransform>
<g transform="translate(27.978834094564963 -70.5766823714047)"><g transform="scale(0.353892474742485)">
<path d="M1,4.7C1,4,1.2,3.4,1.4,2.8C1.6,2.5,1.7,2.1,2,1.9c0.3-0.2,0.6-0.4,0.9-0.5C4.3,0.9,5.8,1,7.3,1.3c0.6,0.2,1.3,0.5,1.6,1.1 C9.1,2.9,9,3.5,8.9,4C8.7,5,8.6,6,8.6,7c0,0.1,0,0.2,0,0.3C8.5,7.4,8.3,7.5,8.2,7.6C7.6,7.8,7.1,8.1,6.5,8.3 C5.9,8.6,5.3,8.9,4.7,8.9c-0.4,0-0.8,0-1.2-0.1C2.7,8.8,1,8.7,1,8.7L1,6L1,4.7z" fill="#eee" transform="translate(-5 -5)"></path>
</g></g></g><g>
<animateTransform attributeName="transform" type="translate" values="0 0;0 200" keyTimes="0;1" repeatCount="indefinite" dur="1.5666666666666667s" begin="-2.228792296987411s"></animateTransform>
<g transform="translate(27.978834094564963 129.4233176285953)"><g transform="scale(0.353892474742485)">
<path d="M1,4.7C1,4,1.2,3.4,1.4,2.8C1.6,2.5,1.7,2.1,2,1.9c0.3-0.2,0.6-0.4,0.9-0.5C4.3,0.9,5.8,1,7.3,1.3c0.6,0.2,1.3,0.5,1.6,1.1 C9.1,2.9,9,3.5,8.9,4C8.7,5,8.6,6,8.6,7c0,0.1,0,0.2,0,0.3C8.5,7.4,8.3,7.5,8.2,7.6C7.6,7.8,7.1,8.1,6.5,8.3 C5.9,8.6,5.3,8.9,4.7,8.9c-0.4,0-0.8,0-1.2-0.1C2.7,8.8,1,8.7,1,8.7L1,6L1,4.7z" fill="#eee" transform="translate(-5 -5)"></path>
</g></g></g><g>
<animateTransform attributeName="transform" type="translate" values="0 0;0 200" keyTimes="0;1" repeatCount="indefinite" dur="1.5666666666666667s" begin="-2.228792296987411s"></animateTransform>
<g transform="translate(27.978834094564963 329.4233176285953)"><g transform="scale(0.353892474742485)">
<path d="M1,4.7C1,4,1.2,3.4,1.4,2.8C1.6,2.5,1.7,2.1,2,1.9c0.3-0.2,0.6-0.4,0.9-0.5C4.3,0.9,5.8,1,7.3,1.3c0.6,0.2,1.3,0.5,1.6,1.1 C9.1,2.9,9,3.5,8.9,4C8.7,5,8.6,6,8.6,7c0,0.1,0,0.2,0,0.3C8.5,7.4,8.3,7.5,8.2,7.6C7.6,7.8,7.1,8.1,6.5,8.3 C5.9,8.6,5.3,8.9,4.7,8.9c-0.4,0-0.8,0-1.2-0.1C2.7,8.8,1,8.7,1,8.7L1,6L1,4.7z" fill="#eee" transform="translate(-5 -5)"></path>
</g></g></g><g>
<animateTransform attributeName="transform" type="translate" values="0 0;0 200" keyTimes="0;1" repeatCount="indefinite" dur="1.175s" begin="-2.308079981847661s"></animateTransform>
<g transform="translate(18.460905251332836 -38.274871166941494)"><g transform="scale(0.6101594042642383)">
<path d="M3.1,3.7C3.9,2.9,5,2.5,5.8,1.8c0.3-0.3,0.6-0.6,1-0.7c0.6-0.2,1.2,0.1,1.7,0C8,3.3,8.2,5.6,8.2,7.8c0,0,0,0.1,0,0.1 c0,0.1-0.1,0.1-0.2,0.1c-1.3,0.5-2.7,0.3-4,0.8C3.9,8.9,3.8,9,3.6,9C3.4,9,3.3,8.9,3.2,8.7C2.9,8.4,1.7,7.1,1.4,7.3 C1.6,7,1.7,6.6,1.8,6.2L3.1,3.7z" fill="#fff" transform="translate(-5 -5)"></path>
</g></g></g><g>
<animateTransform attributeName="transform" type="translate" values="0 0;0 200" keyTimes="0;1" repeatCount="indefinite" dur="1.175s" begin="-2.308079981847661s"></animateTransform>
<g transform="translate(18.460905251332836 161.7251288330585)"><g transform="scale(0.6101594042642383)">
<path d="M3.1,3.7C3.9,2.9,5,2.5,5.8,1.8c0.3-0.3,0.6-0.6,1-0.7c0.6-0.2,1.2,0.1,1.7,0C8,3.3,8.2,5.6,8.2,7.8c0,0,0,0.1,0,0.1 c0,0.1-0.1,0.1-0.2,0.1c-1.3,0.5-2.7,0.3-4,0.8C3.9,8.9,3.8,9,3.6,9C3.4,9,3.3,8.9,3.2,8.7C2.9,8.4,1.7,7.1,1.4,7.3 C1.6,7,1.7,6.6,1.8,6.2L3.1,3.7z" fill="#fff" transform="translate(-5 -5)"></path>
</g></g></g><g>
<animateTransform attributeName="transform" type="translate" values="0 0;0 200" keyTimes="0;1" repeatCount="indefinite" dur="1.175s" begin="-2.308079981847661s"></animateTransform>
<g transform="translate(18.460905251332836 361.72512883305853)"><g transform="scale(0.6101594042642383)">
<path d="M3.1,3.7C3.9,2.9,5,2.5,5.8,1.8c0.3-0.3,0.6-0.6,1-0.7c0.6-0.2,1.2,0.1,1.7,0C8,3.3,8.2,5.6,8.2,7.8c0,0,0,0.1,0,0.1 c0,0.1-0.1,0.1-0.2,0.1c-1.3,0.5-2.7,0.3-4,0.8C3.9,8.9,3.8,9,3.6,9C3.4,9,3.3,8.9,3.2,8.7C2.9,8.4,1.7,7.1,1.4,7.3 C1.6,7,1.7,6.6,1.8,6.2L3.1,3.7z" fill="#fff" transform="translate(-5 -5)"></path>
</g></g></g><g>
<animateTransform attributeName="transform" type="translate" values="0 0;0 200" keyTimes="0;1" repeatCount="indefinite" dur="4.7s" begin="-2.232014970480324s"></animateTransform>
<g transform="translate(58.56812853852279 -62.37025105324628)"><g transform="scale(0.13280275140603112)">
<path d="M3.1,3.7C3.9,2.9,5,2.5,5.8,1.8c0.3-0.3,0.6-0.6,1-0.7c0.6-0.2,1.2,0.1,1.7,0C8,3.3,8.2,5.6,8.2,7.8c0,0,0,0.1,0,0.1 c0,0.1-0.1,0.1-0.2,0.1c-1.3,0.5-2.7,0.3-4,0.8C3.9,8.9,3.8,9,3.6,9C3.4,9,3.3,8.9,3.2,8.7C2.9,8.4,1.7,7.1,1.4,7.3 C1.6,7,1.7,6.6,1.8,6.2L3.1,3.7z" fill="#f9f9f9" transform="translate(-5 -5)"></path>
</g></g></g><g>
<animateTransform attributeName="transform" type="translate" values="0 0;0 200" keyTimes="0;1" repeatCount="indefinite" dur="4.7s" begin="-2.232014970480324s"></animateTransform>
<g transform="translate(58.56812853852279 137.62974894675372)"><g transform="scale(0.13280275140603112)">
<path d="M3.1,3.7C3.9,2.9,5,2.5,5.8,1.8c0.3-0.3,0.6-0.6,1-0.7c0.6-0.2,1.2,0.1,1.7,0C8,3.3,8.2,5.6,8.2,7.8c0,0,0,0.1,0,0.1 c0,0.1-0.1,0.1-0.2,0.1c-1.3,0.5-2.7,0.3-4,0.8C3.9,8.9,3.8,9,3.6,9C3.4,9,3.3,8.9,3.2,8.7C2.9,8.4,1.7,7.1,1.4,7.3 C1.6,7,1.7,6.6,1.8,6.2L3.1,3.7z" fill="#f9f9f9" transform="translate(-5 -5)"></path>
</g></g></g><g>
<animateTransform attributeName="transform" type="translate" values="0 0;0 200" keyTimes="0;1" repeatCount="indefinite" dur="4.7s" begin="-2.232014970480324s"></animateTransform>
<g transform="translate(58.56812853852279 337.6297489467537)"><g transform="scale(0.13280275140603112)">
<path d="M3.1,3.7C3.9,2.9,5,2.5,5.8,1.8c0.3-0.3,0.6-0.6,1-0.7c0.6-0.2,1.2,0.1,1.7,0C8,3.3,8.2,5.6,8.2,7.8c0,0,0,0.1,0,0.1 c0,0.1-0.1,0.1-0.2,0.1c-1.3,0.5-2.7,0.3-4,0.8C3.9,8.9,3.8,9,3.6,9C3.4,9,3.3,8.9,3.2,8.7C2.9,8.4,1.7,7.1,1.4,7.3 C1.6,7,1.7,6.6,1.8,6.2L3.1,3.7z" fill="#f9f9f9" transform="translate(-5 -5)"></path>
</g></g></g><g>
<animateTransform attributeName="transform" type="translate" values="0 0;0 200" keyTimes="0;1" repeatCount="indefinite" dur="4.7s" begin="-2.7832507975028493s"></animateTransform>
<g transform="translate(155.40529374624575 -162.7322367723592)"><g transform="scale(0.5490785643203614)">
<path d="M3.1,3.7C3.9,2.9,5,2.5,5.8,1.8c0.3-0.3,0.6-0.6,1-0.7c0.6-0.2,1.2,0.1,1.7,0C8,3.3,8.2,5.6,8.2,7.8c0,0,0,0.1,0,0.1 c0,0.1-0.1,0.1-0.2,0.1c-1.3,0.5-2.7,0.3-4,0.8C3.9,8.9,3.8,9,3.6,9C3.4,9,3.3,8.9,3.2,8.7C2.9,8.4,1.7,7.1,1.4,7.3 C1.6,7,1.7,6.6,1.8,6.2L3.1,3.7z" fill="#f9f9f9" transform="translate(-5 -5)"></path>
</g></g></g><g>
<animateTransform attributeName="transform" type="translate" values="0 0;0 200" keyTimes="0;1" repeatCount="indefinite" dur="4.7s" begin="-2.7832507975028493s"></animateTransform>
<g transform="translate(155.40529374624575 37.267763227640806)"><g transform="scale(0.5490785643203614)">
<path d="M3.1,3.7C3.9,2.9,5,2.5,5.8,1.8c0.3-0.3,0.6-0.6,1-0.7c0.6-0.2,1.2,0.1,1.7,0C8,3.3,8.2,5.6,8.2,7.8c0,0,0,0.1,0,0.1 c0,0.1-0.1,0.1-0.2,0.1c-1.3,0.5-2.7,0.3-4,0.8C3.9,8.9,3.8,9,3.6,9C3.4,9,3.3,8.9,3.2,8.7C2.9,8.4,1.7,7.1,1.4,7.3 C1.6,7,1.7,6.6,1.8,6.2L3.1,3.7z" fill="#f9f9f9" transform="translate(-5 -5)"></path>
</g></g></g><g>
<animateTransform attributeName="transform" type="translate" values="0 0;0 200" keyTimes="0;1" repeatCount="indefinite" dur="4.7s" begin="-2.7832507975028493s"></animateTransform>
<g transform="translate(155.40529374624575 237.2677632276408)"><g transform="scale(0.5490785643203614)">
<path d="M3.1,3.7C3.9,2.9,5,2.5,5.8,1.8c0.3-0.3,0.6-0.6,1-0.7c0.6-0.2,1.2,0.1,1.7,0C8,3.3,8.2,5.6,8.2,7.8c0,0,0,0.1,0,0.1 c0,0.1-0.1,0.1-0.2,0.1c-1.3,0.5-2.7,0.3-4,0.8C3.9,8.9,3.8,9,3.6,9C3.4,9,3.3,8.9,3.2,8.7C2.9,8.4,1.7,7.1,1.4,7.3 C1.6,7,1.7,6.6,1.8,6.2L3.1,3.7z" fill="#f9f9f9" transform="translate(-5 -5)"></path>
</g></g></g><g>
<animateTransform attributeName="transform" type="translate" values="0 0;0 200" keyTimes="0;1" repeatCount="indefinite" dur="1.175s" begin="-1.3514948477464608s"></animateTransform>
<g transform="translate(161.74630975753342 -181.60219092337638)"><g transform="scale(0.7158766023909046)">
<path d="M3.1,3.7C3.9,2.9,5,2.5,5.8,1.8c0.3-0.3,0.6-0.6,1-0.7c0.6-0.2,1.2,0.1,1.7,0C8,3.3,8.2,5.6,8.2,7.8c0,0,0,0.1,0,0.1 c0,0.1-0.1,0.1-0.2,0.1c-1.3,0.5-2.7,0.3-4,0.8C3.9,8.9,3.8,9,3.6,9C3.4,9,3.3,8.9,3.2,8.7C2.9,8.4,1.7,7.1,1.4,7.3 C1.6,7,1.7,6.6,1.8,6.2L3.1,3.7z" fill="#fff" transform="translate(-5 -5)"></path>
</g></g></g><g>
<animateTransform attributeName="transform" type="translate" values="0 0;0 200" keyTimes="0;1" repeatCount="indefinite" dur="1.175s" begin="-1.3514948477464608s"></animateTransform>
<g transform="translate(161.74630975753342 18.397809076623624)"><g transform="scale(0.7158766023909046)">
<path d="M3.1,3.7C3.9,2.9,5,2.5,5.8,1.8c0.3-0.3,0.6-0.6,1-0.7c0.6-0.2,1.2,0.1,1.7,0C8,3.3,8.2,5.6,8.2,7.8c0,0,0,0.1,0,0.1 c0,0.1-0.1,0.1-0.2,0.1c-1.3,0.5-2.7,0.3-4,0.8C3.9,8.9,3.8,9,3.6,9C3.4,9,3.3,8.9,3.2,8.7C2.9,8.4,1.7,7.1,1.4,7.3 C1.6,7,1.7,6.6,1.8,6.2L3.1,3.7z" fill="#fff" transform="translate(-5 -5)"></path>
</g></g></g><g>
<animateTransform attributeName="transform" type="translate" values="0 0;0 200" keyTimes="0;1" repeatCount="indefinite" dur="1.175s" begin="-1.3514948477464608s"></animateTransform>
<g transform="translate(161.74630975753342 218.39780907662362)"><g transform="scale(0.7158766023909046)">
<path d="M3.1,3.7C3.9,2.9,5,2.5,5.8,1.8c0.3-0.3,0.6-0.6,1-0.7c0.6-0.2,1.2,0.1,1.7,0C8,3.3,8.2,5.6,8.2,7.8c0,0,0,0.1,0,0.1 c0,0.1-0.1,0.1-0.2,0.1c-1.3,0.5-2.7,0.3-4,0.8C3.9,8.9,3.8,9,3.6,9C3.4,9,3.3,8.9,3.2,8.7C2.9,8.4,1.7,7.1,1.4,7.3 C1.6,7,1.7,6.6,1.8,6.2L3.1,3.7z" fill="#fff" transform="translate(-5 -5)"></path>
</g></g></g><g>
<animateTransform attributeName="transform" type="translate" values="0 0;0 200" keyTimes="0;1" repeatCount="indefinite" dur="4.7s" begin="-3.8043464278487655s"></animateTransform>
<g transform="translate(199.13889980891545 -169.76690977321806)"><g transform="scale(0.16374491597432522)">
<path d="M1,4.7C1,4,1.2,3.4,1.4,2.8C1.6,2.5,1.7,2.1,2,1.9c0.3-0.2,0.6-0.4,0.9-0.5C4.3,0.9,5.8,1,7.3,1.3c0.6,0.2,1.3,0.5,1.6,1.1 C9.1,2.9,9,3.5,8.9,4C8.7,5,8.6,6,8.6,7c0,0.1,0,0.2,0,0.3C8.5,7.4,8.3,7.5,8.2,7.6C7.6,7.8,7.1,8.1,6.5,8.3 C5.9,8.6,5.3,8.9,4.7,8.9c-0.4,0-0.8,0-1.2-0.1C2.7,8.8,1,8.7,1,8.7L1,6L1,4.7z" fill="#f9f9f9" transform="translate(-5 -5)"></path>
</g></g></g><g>
<animateTransform attributeName="transform" type="translate" values="0 0;0 200" keyTimes="0;1" repeatCount="indefinite" dur="4.7s" begin="-3.8043464278487655s"></animateTransform>
<g transform="translate(199.13889980891545 30.233090226781954)"><g transform="scale(0.16374491597432522)">
<path d="M1,4.7C1,4,1.2,3.4,1.4,2.8C1.6,2.5,1.7,2.1,2,1.9c0.3-0.2,0.6-0.4,0.9-0.5C4.3,0.9,5.8,1,7.3,1.3c0.6,0.2,1.3,0.5,1.6,1.1 C9.1,2.9,9,3.5,8.9,4C8.7,5,8.6,6,8.6,7c0,0.1,0,0.2,0,0.3C8.5,7.4,8.3,7.5,8.2,7.6C7.6,7.8,7.1,8.1,6.5,8.3 C5.9,8.6,5.3,8.9,4.7,8.9c-0.4,0-0.8,0-1.2-0.1C2.7,8.8,1,8.7,1,8.7L1,6L1,4.7z" fill="#f9f9f9" transform="translate(-5 -5)"></path>
</g></g></g><g>
<animateTransform attributeName="transform" type="translate" values="0 0;0 200" keyTimes="0;1" repeatCount="indefinite" dur="4.7s" begin="-3.8043464278487655s"></animateTransform>
<g transform="translate(199.13889980891545 230.23309022678194)"><g transform="scale(0.16374491597432522)">
<path d="M1,4.7C1,4,1.2,3.4,1.4,2.8C1.6,2.5,1.7,2.1,2,1.9c0.3-0.2,0.6-0.4,0.9-0.5C4.3,0.9,5.8,1,7.3,1.3c0.6,0.2,1.3,0.5,1.6,1.1 C9.1,2.9,9,3.5,8.9,4C8.7,5,8.6,6,8.6,7c0,0.1,0,0.2,0,0.3C8.5,7.4,8.3,7.5,8.2,7.6C7.6,7.8,7.1,8.1,6.5,8.3 C5.9,8.6,5.3,8.9,4.7,8.9c-0.4,0-0.8,0-1.2-0.1C2.7,8.8,1,8.7,1,8.7L1,6L1,4.7z" fill="#f9f9f9" transform="translate(-5 -5)"></path>
</g></g></g>
  </pattern>
</defs>
<rect x="0" y="0" width="100%" height="100%" fill="url(#ldp-896c6bde9e3528)"></rect></svg>