<?xml version="1.0" encoding="utf-8"?>
<!-- Generator: Adobe Illustrator 16.0.0, SVG Export Plug-In . SVG Version: 6.00 Build 0)  -->
<!DOCTYPE svg PUBLIC "-//W3C//DTD SVG 1.1//EN" "http://www.w3.org/Graphics/SVG/1.1/DTD/svg11.dtd">
<svg version="1.1" id="Calque_1" xmlns="http://www.w3.org/2000/svg" xmlns:xlink="http://www.w3.org/1999/xlink" x="0px" y="0px"
	 width="960px" height="560px" viewBox="0 0 960 560" enable-background="new 0 0 960 560" xml:space="preserve">
<g>
	<rect x="536.609" y="156.539" fill="#D21F43" width="327.616" height="173.205"/>
	<line fill="none" stroke="#000000" stroke-miterlimit="10" x1="111.756" y1="329.744" x2="864.226" y2="329.744"/>
	<g>
		<path d="M143.831,196.155h19.92l25.66,97.576h-16.207l-5.965-23.859h-28.586l-6.303,23.859h-16.206L143.831,196.155z
			 M164.652,257.379l-11.254-48.057h-0.225l-11.592,48.057H164.652z"/>
		<path d="M254.237,258.729v2.026c0,17.669-7.09,34.776-30.049,34.776c-24.535,0-32.188-15.869-32.188-50.645
			s7.653-50.645,32.413-50.645c27.686,0,29.374,20.483,29.374,30.612v1.801h-15.531v-1.688c0-9.003-2.701-19.357-13.955-19.02
			c-11.479,0-16.657,7.09-16.657,38.49s5.177,39.39,16.657,39.39c12.942,0,14.518-14.518,14.518-23.521v-1.688h15.418V258.729z"/>
		<path d="M323.114,258.729v2.026c0,17.669-7.09,34.776-30.049,34.776c-24.535,0-32.188-15.869-32.188-50.645
			s7.653-50.645,32.413-50.645c27.686,0,29.374,20.483,29.374,30.612v1.801h-15.531v-1.688c0-9.003-2.701-19.357-13.955-19.02
			c-11.479,0-16.657,7.09-16.657,38.49s5.177,39.39,16.657,39.39c12.942,0,14.518-14.518,14.518-23.521v-1.688h15.418V258.729z"/>
		<path d="M331.892,196.155h52.67v13.167h-37.139v27.011h35.001V249.5h-35.001v31.175h38.265v13.167h-53.796V196.155z"/>
		<path d="M407.634,263.568v2.476c0,11.93,5.177,17.895,15.981,17.895c9.792,0,14.743-6.978,14.743-14.181
			c0-10.241-5.177-14.743-13.955-17.332l-10.692-3.714c-14.18-5.515-20.37-12.83-20.37-26.786c0-17.782,12.042-27.573,30.274-27.573
			c24.985,0,27.573,15.531,27.573,25.66v2.138h-15.531v-2.026c0-8.891-3.938-14.068-13.617-14.068
			c-6.64,0-13.168,3.714-13.168,14.068c0,8.329,4.277,12.605,14.631,16.544l10.467,3.827c13.843,4.952,19.808,12.38,19.808,25.772
			c0,20.708-12.605,29.374-32.188,29.374c-24.197,0-29.599-16.094-29.599-29.824v-2.363h15.644V263.568z"/>
		<path d="M476.398,263.568v2.476c0,11.93,5.177,17.895,15.981,17.895c9.791,0,14.743-6.978,14.743-14.181
			c0-10.241-5.177-14.743-13.955-17.332l-10.692-3.714c-14.18-5.515-20.37-12.83-20.37-26.786c0-17.782,12.042-27.573,30.274-27.573
			c24.984,0,27.573,15.531,27.573,25.66v2.138h-15.531v-2.026c0-8.891-3.938-14.068-13.618-14.068
			c-6.64,0-13.167,3.714-13.167,14.068c0,8.329,4.276,12.605,14.631,16.544l10.466,3.827c13.844,4.952,19.809,12.38,19.809,25.772
			c0,20.708-12.605,29.374-32.188,29.374c-24.197,0-29.6-16.094-29.6-29.824v-2.363h15.644V263.568z"/>
		<path fill="#FFFFFF" d="M623.943,258.729v2.026c0,17.669-7.09,34.776-30.049,34.776c-24.534,0-32.188-15.869-32.188-50.645
			s7.653-50.645,32.413-50.645c27.686,0,29.373,20.483,29.373,30.612v1.801h-15.53v-1.688c0-9.003-2.701-19.357-13.956-19.02
			c-11.479,0-16.656,7.09-16.656,38.49s5.177,39.39,16.656,39.39c12.942,0,14.519-14.518,14.519-23.521v-1.688h15.418V258.729z"/>
		<path fill="#FFFFFF" d="M630.472,244.999c0-34.776,9.791-50.645,32.188-50.645c22.396,0,32.188,15.869,32.188,50.645
			c0,34.776-9.792,50.645-32.188,50.645C640.263,295.644,630.472,279.775,630.472,244.999z M679.428,244.549
			c0-32.75-7.428-38.49-16.656-38.49s-16.656,5.74-16.656,38.49c0,33.65,7.428,39.391,16.656,39.391
			S679.428,278.199,679.428,244.549z"/>
		<path fill="#FFFFFF" d="M706.776,196.155h27.686c30.612,0,34.438,19.92,34.438,48.731c0,28.812-3.826,48.731-34.438,48.731
			h-27.686V196.155z M722.308,282.025h12.83c12.829,0,18.119-8.44,18.119-37.026c0-27.461-4.614-37.027-18.119-37.027h-12.83
			V282.025z"/>
		<path fill="#FFFFFF" d="M780.604,196.155h52.671v13.167h-37.14v27.011h35.001V249.5h-35.001v31.175h38.266v13.167h-53.797V196.155
			z"/>
	</g>
	<g>
		<path fill="#D21F43" d="M0,244.324l73.941-32.976v12.605l-59.085,25.885l59.085,25.885v12.605L0,255.128V244.324z"/>
	</g>
	<g>
		<path fill="#D21F43" d="M960,255.128l-73.941,32.976v-12.605l59.086-25.885l-59.086-25.885v-12.492L960,244.324V255.128z"/>
	</g>
	<g>
		<path d="M139.33,369.135c0-2.813-0.675-4.952-1.914-6.527c-1.351-1.576-3.376-2.363-6.19-2.363c-1.35,0-2.588,0.225-3.714,0.675
			c-1.013,0.45-1.913,1.013-2.701,1.688c-0.675,0.788-1.238,1.575-1.688,2.588c-0.337,1.014-0.563,2.026-0.563,3.151
			c0,2.251,0.563,3.939,1.575,5.178c1.125,1.237,2.476,2.251,4.052,2.926c1.576,0.788,3.376,1.351,5.29,1.913
			c1.914,0.563,3.714,1.238,5.29,2.139s2.926,2.025,4.052,3.602c1.125,1.463,1.576,3.601,1.576,6.189
			c0,2.251-0.338,4.164-1.013,5.74c-0.675,1.688-1.576,3.038-2.813,4.164c-1.238,1.125-2.588,1.913-4.277,2.476
			c-1.688,0.563-3.489,0.788-5.627,0.788c-4.277,0-7.541-1.126-9.792-3.377c-2.251-2.25-3.376-5.627-3.376-10.016v-1.351h4.051
			v1.688c0,2.927,0.788,5.29,2.251,6.979c1.463,1.8,3.714,2.588,6.752,2.588c2.926,0,5.177-0.788,6.978-2.251
			s2.701-3.826,2.701-6.978c0-1.688-0.338-3.039-0.9-4.164c-0.675-1.125-1.463-2.025-2.476-2.701
			c-1.013-0.675-2.138-1.351-3.489-1.801s-2.701-0.9-4.052-1.351s-2.701-0.9-4.052-1.575c-1.35-0.563-2.476-1.351-3.489-2.139
			c-1.013-0.9-1.801-2.025-2.476-3.376s-0.9-3.039-0.9-5.177c0-1.801,0.337-3.377,0.9-4.84c0.563-1.463,1.351-2.701,2.476-3.714
			c1.013-1.013,2.363-1.801,3.939-2.476c1.576-0.563,3.264-0.9,5.29-0.9c4.277,0,7.315,1.013,9.341,3.15
			c2.026,2.139,2.926,5.178,2.926,9.229h-3.939V369.135z"/>
		<path d="M283.723,387.367c-0.337,5.177-1.575,9.229-3.826,11.93c-2.251,2.813-5.515,4.164-9.566,4.164
			c-4.614,0-8.216-1.913-10.691-5.627c-2.476-3.715-3.714-9.68-3.714-17.782c0-8.104,1.238-14.068,3.714-17.782
			c2.476-3.714,6.077-5.627,10.691-5.627c2.251,0,4.277,0.338,5.853,1.125c1.688,0.788,3.039,1.801,4.051,3.039
			c1.013,1.238,1.801,2.701,2.364,4.389c0.45,1.688,0.675,3.489,0.675,5.29h-4.052c0-3.039-0.788-5.627-2.251-7.54
			c-1.576-1.914-3.714-2.927-6.64-2.927c-1.576,0-3.039,0.338-4.389,1.013c-1.238,0.676-2.363,1.801-3.264,3.377
			c-0.9,1.575-1.576,3.602-2.026,6.189c-0.45,2.589-0.675,5.627-0.675,9.342c0,3.714,0.225,6.752,0.675,9.341
			s1.125,4.614,2.026,6.189c0.9,1.576,2.026,2.701,3.264,3.377c1.238,0.675,2.701,1.013,4.389,1.013c2.926,0,5.064-1.126,6.64-3.376
			c1.576-2.251,2.476-5.402,2.701-9.229h4.051V387.367z"/>
		<path d="M417.313,380.164h-17.669v22.509h-4.052v-45.242h4.052v19.357h17.669v-19.245h4.051v45.242h-4.051V380.164z"/>
		<path d="M534.472,380.164c0-8.104,1.237-14.068,3.714-17.782c2.476-3.714,6.077-5.627,10.691-5.627s8.216,1.913,10.691,5.627
			c2.477,3.714,3.714,9.679,3.714,17.782s-1.237,14.068-3.714,17.782c-2.476,3.714-6.077,5.627-10.691,5.627
			s-8.216-1.913-10.691-5.627C535.709,394.119,534.472,388.268,534.472,380.164z M538.522,380.164c0,3.714,0.226,6.753,0.676,9.341
			c0.45,2.589,1.125,4.614,2.025,6.19c0.9,1.575,2.026,2.701,3.264,3.376c1.238,0.676,2.701,1.013,4.39,1.013
			c1.575,0,3.039-0.337,4.39-1.013c1.237-0.675,2.363-1.801,3.264-3.376c0.9-1.576,1.575-3.602,2.025-6.19
			c0.45-2.588,0.675-5.627,0.675-9.341s-0.225-6.753-0.675-9.341c-0.45-2.589-1.125-4.614-2.025-6.19
			c-0.9-1.575-2.026-2.701-3.264-3.376c-1.238-0.676-2.701-1.013-4.39-1.013c-1.575,0-3.039,0.337-4.39,1.013
			c-1.237,0.675-2.363,1.801-3.264,3.376c-0.9,1.576-1.575,3.602-2.025,6.19C538.748,373.411,538.522,376.45,538.522,380.164z"/>
		<path d="M676.052,380.164c0-8.104,1.238-14.068,3.714-17.782s6.077-5.627,10.691-5.627s8.216,1.913,10.692,5.627
			c2.476,3.714,3.714,9.679,3.714,17.782s-1.238,14.068-3.714,17.782c-2.477,3.714-6.078,5.627-10.692,5.627
			s-8.216-1.913-10.691-5.627C677.29,394.119,676.052,388.268,676.052,380.164z M680.104,380.164c0,3.714,0.225,6.753,0.675,9.341
			c0.45,2.589,1.125,4.614,2.025,6.19c0.9,1.575,2.026,2.701,3.265,3.376c1.237,0.676,2.7,1.013,4.389,1.013
			c1.576,0,3.039-0.337,4.39-1.013c1.237-0.675,2.363-1.801,3.264-3.376c0.9-1.576,1.575-3.602,2.025-6.19
			c0.45-2.588,0.676-5.627,0.676-9.341s-0.226-6.753-0.676-9.341c-0.45-2.589-1.125-4.614-2.025-6.19
			c-0.9-1.575-2.025-2.701-3.264-3.376c-1.238-0.676-2.701-1.013-4.39-1.013c-1.575,0-3.038,0.337-4.389,1.013
			c-1.238,0.675-2.364,1.801-3.265,3.376c-0.9,1.576-1.575,3.602-2.025,6.19C680.328,373.411,680.104,376.45,680.104,380.164z"/>
		<path d="M818.082,357.543h4.052v41.754h18.795v3.376h-22.847V357.543z"/>
	</g>
</g>
</svg>
